<svg xmlns="http://www.w3.org/2000/svg" xmlns:xlink="http://www.w3.org/1999/xlink" viewBox="0,0,256,256" width="48px" height="48px"><g fill-opacity="0" fill="#dddddd" fill-rule="nonzero" stroke="none" stroke-width="1" stroke-linecap="butt" stroke-linejoin="miter" stroke-miterlimit="10" stroke-dasharray="" stroke-dashoffset="0" font-family="none" font-weight="none" font-size="none" text-anchor="none" style="mix-blend-mode: normal"><path d="M0,256v-256h256v256z" id="bgRectangle"></path></g><g fill="#f9e2af" fill-rule="nonzero" stroke="none" stroke-width="1" stroke-linecap="butt" stroke-linejoin="miter" stroke-miterlimit="10" stroke-dasharray="" stroke-dashoffset="0" font-family="none" font-weight="none" font-size="none" text-anchor="none" style="mix-blend-mode: normal"><g transform="scale(4,4)"><path d="M32,10c12.15,0 22,9.85 22,22c0,12.15 -9.85,22 -22,22c-12.15,0 -22,-9.85 -22,-22c0,-12.15 9.85,-22 22,-22zM34,32c0,-0.366 0,-13.634 0,-14c0,-1.105 -0.896,-2 -2,-2c-1.104,0 -2,0.895 -2,2c0,0.282 0,8.196 0,12c-2.66,0 -9.698,0 -10,0c-1.105,0 -2,0.896 -2,2c0,1.104 0.895,2 2,2c0.366,0 11.826,0 12,0c1.104,0 2,-0.895 2,-2z"></path></g></g></svg>
